<svg data-v-20837234="" width="24" height="24" viewBox="0 0 24 24" fill="blak" xmlns="http://www.w3.org/2000/svg" class="ui-icon ">
<path fill-rule="solid" clip-rule="evenodd" d="M12.5919 6.30776C12.2745 6.65691 11.7254 6.65691 11.408 6.30776L10.2557 5.04022C8.6211 3.24213 5.83833 3.10961 4.04023 4.74424C3.0663 5.62964 2.64186 6.44801 2.48982 7.16768C2.33552 7.89804 2.42836 8.68672 2.76 9.55775C3.45133 11.3735 5.03708 13.2026 6.65581 14.8936C7.93664 16.2316 10.5544 18.1907 12 19.2358C13.4456 18.1907 16.0633 16.2316 17.3442 14.8936C18.9629 13.2026 20.5487 11.3735 21.24 9.55775C21.5716 8.68672 21.6645 7.89804 21.5102 7.16768C21.3581 6.44801 20.9337 5.62964 19.9598 4.74424C18.1617 3.10961 15.3789 3.24213 13.7443 5.04022L12.5919 6.30776ZM13.1142 3.4274C15.3783 1.49848 18.777 1.50669 21.036 3.56034C25.7404 7.83707 21.7083 12.6483 18.5 16C17.0185 17.5477 14.0224 19.7548 12.6788 20.7186C12.2712 21.0111 11.7288 21.0111 11.3212 20.7186C9.97757 19.7548 6.98153 17.5477 5.5 16C2.29168 12.6483 -1.74043 7.83706 2.96396 3.56034C5.22297 1.50669 8.62173 1.49848 10.8858 3.4274C11.0792 3.59214 11.2642 3.77101 11.4396 3.96394L12 4.58034L12.5604 3.96394C12.7357 3.77101 12.9208 3.59214 13.1142 3.4274Z" fill="black"></path>
</svg>