<svg width="27" height="27" viewBox="0 0 27 27" fill="none" xmlns="http://www.w3.org/2000/svg">
<rect x="0.5" y="0.5" width="26" height="26" rx="13" stroke="#ACACAC"/>
<g clip-path="url(#clip0_1_154)">
<path d="M10.8749 19.9167C11.1741 19.9167 11.4166 19.6742 11.4166 19.375C11.4166 19.0759 11.1741 18.8334 10.8749 18.8334C10.5758 18.8334 10.3333 19.0759 10.3333 19.375C10.3333 19.6742 10.5758 19.9167 10.8749 19.9167Z" stroke="black" stroke-linecap="round" stroke-linejoin="round"/>
<path d="M16.8334 19.9167C17.1326 19.9167 17.3751 19.6742 17.3751 19.375C17.3751 19.0759 17.1326 18.8334 16.8334 18.8334C16.5343 18.8334 16.2917 19.0759 16.2917 19.375C16.2917 19.6742 16.5343 19.9167 16.8334 19.9167Z" stroke="black" stroke-linecap="round" stroke-linejoin="round"/>
<path d="M6.54175 8.54163H8.70841L10.1601 15.7945C10.2096 16.0439 10.3453 16.2679 10.5433 16.4274C10.7414 16.5868 10.9892 16.6715 11.2434 16.6666H16.5084C16.7626 16.6715 17.0104 16.5868 17.2085 16.4274C17.4065 16.2679 17.5422 16.0439 17.5917 15.7945L18.4584 11.25H9.25008" stroke="black" stroke-linecap="round" stroke-linejoin="round"/>
</g>
<defs>
<clipPath id="clip0_1_154">
<rect width="13" height="13" fill="white" transform="translate(6 8)"/>
</clipPath>
</defs>
</svg>
